<?xml version="1.0" standalone="no"?>
<!DOCTYPE svg PUBLIC "-//W3C//DTD SVG 20010904//EN"
 "http://www.w3.org/TR/2001/REC-SVG-20010904/DTD/svg10.dtd">
<svg version="1.0" xmlns="http://www.w3.org/2000/svg"
 width="512.000000pt" height="512.000000pt" viewBox="0 0 512.000000 512.000000"
 preserveAspectRatio="xMidYMid meet">

<g transform="translate(0.000000,512.000000) scale(0.100000,-0.100000)"
fill="#000000" stroke="none">
<path d="M2345 4688 c-565 -57 -1101 -349 -1457 -796 -189 -237 -342 -550
-407 -832 -43 -187 -55 -299 -55 -500 0 -349 63 -625 214 -935 309 -637 905
-1074 1610 -1182 143 -21 462 -24 600 -4 469 67 885 275 1221 610 234 234 393
482 502 787 214 594 152 1265 -166 1806 -173 294 -463 587 -746 754 -398 235
-862 338 -1316 292z m468 -203 c791 -104 1438 -681 1632 -1455 75 -297 75
-643 0 -940 -137 -549 -506 -1009 -1012 -1265 -419 -211 -913 -262 -1376 -140
-528 138 -996 523 -1237 1018 -348 716 -235 1550 290 2146 245 278 594 494
947 586 234 62 521 81 756 50z"/>
<path d="M2371 3076 c-50 -28 -50 -31 -51 -494 l0 -434 35 -35 c32 -32 40 -35
73 -30 24 4 47 17 65 37 l27 30 0 310 c0 171 3 310 6 310 3 0 24 -16 47 -35
57 -49 105 -48 167 1 l45 36 5 -316 5 -316 27 -27 c41 -41 100 -39 139 5 l29
32 0 430 c0 461 -1 470 -51 496 -58 29 -78 21 -198 -81 l-85 -73 -73 62 c-133
112 -157 122 -212 92z"/>
<path d="M1664 3060 c-12 -4 -31 -21 -43 -36 -21 -26 -21 -33 -21 -460 l0
-434 29 -32 29 -33 272 -3 271 -3 35 35 34 34 0 436 0 436 -27 30 c-18 20 -41
33 -65 37 -33 5 -41 2 -73 -30 l-35 -35 0 -371 0 -371 -135 0 -135 0 0 371 0
371 -34 34 c-34 34 -61 41 -102 24z"/>
<path d="M3095 3037 l-35 -35 0 -431 c0 -473 0 -476 58 -500 20 -9 83 -11 202
-9 l172 3 29 33 c38 42 38 82 0 124 l-29 33 -116 3 -116 4 0 369 0 369 -27 30
c-18 20 -41 33 -65 37 -33 5 -41 2 -73 -30z"/>
<path d="M1305 3050 c-11 -5 -119 -108 -240 -229 -213 -214 -220 -222 -220
-261 0 -39 7 -46 225 -265 154 -155 233 -226 253 -231 77 -17 142 68 106 139
-6 12 -86 97 -177 190 l-167 167 167 168 c91 92 171 177 177 189 40 80 -42
168 -124 133z"/>
<path d="M3755 3051 c-37 -15 -60 -51 -60 -92 0 -38 8 -47 180 -219 l180 -180
-180 -180 c-172 -172 -180 -181 -180 -219 0 -73 78 -121 141 -88 47 25 442
428 449 460 4 15 4 39 0 55 -7 30 -401 434 -447 458 -30 16 -53 17 -83 5z"/>
</g>
</svg>
